<svg version="1.0" xmlns="http://www.w3.org/2000/svg"
  width="60px" height="60px" viewBox="25 100 450 450"
  preserveAspectRatio="slice">
  <metadata> Created by potrace 1.16, written by Peter Selinger 2001-2019 </metadata>
  <g transform="translate(0.000000,570.000000) scale(0.100000,-0.100000)"
    fill="#fff" stroke="none">
    <path d="M2598 4584 c-26 -13 -38 -34 -20 -34 12 1 57 38 52 43 -3 3 -17 -1
-32 -9z" />
    <path d="M3210 4480 c0 -9 75 -46 117 -56 45 -12 22 14 -36 40 -63 28 -81 32
-81 16z" />
    <path
      d="M1460 4455 c0 -2 21 -15 47 -28 38 -20 49 -32 59 -63 11 -36 12 -37
13 -11 1 16 -4 37 -9 48 -15 27 -110 74 -110 54z" />
    <path
      d="M2334 4262 c-28 -10 -74 -35 -102 -55 -36 -26 -63 -37 -87 -37 -81 0
-131 -100 -87 -174 11 -19 18 -37 15 -40 -4 -3 -30 -6 -58 -6 -155 0 -136
-151 26 -210 l37 -13 4 -121 c5 -117 4 -122 -19 -147 -13 -14 -28 -43 -34 -63
-21 -76 31 -206 82 -206 12 0 27 -16 43 -49 36 -71 69 -105 131 -137 30 -16
55 -32 55 -36 0 -4 -12 -10 -27 -14 -60 -13 -99 -28 -127 -47 -24 -17 -48 -22
-115 -23 -57 -2 -115 -11 -170 -28 -83 -24 -83 -24 -115 -5 -17 10 -37 19 -44
19 -7 0 -30 17 -51 38 -21 20 -45 43 -54 49 -17 13 -15 20 16 108 15 41 17
213 3 247 -8 17 -46 35 -86 40 -25 3 -25 5 -25 90 0 77 -2 89 -24 112 -13 14
-33 28 -43 32 -10 3 -27 23 -39 45 -54 107 -149 49 -134 -82 6 -54 5 -60 -23
-96 -37 -47 -47 -79 -32 -98 9 -11 8 -21 -3 -42 -20 -39 -47 -153 -47 -202 0
-26 16 -76 45 -143 25 -56 52 -126 61 -155 17 -58 46 -87 103 -103 94 -25 213
49 228 142 l6 41 19 -22 c55 -69 -28 -199 -147 -230 -45 -11 -101 -2 -140 23
-53 35 -102 133 -88 174 5 14 4 15 -8 4 -27 -25 -16 -92 28 -177 22 -44 51
-113 63 -154 21 -72 56 -121 86 -121 17 0 29 -24 38 -71 16 -87 95 -114 249
-86 45 8 83 14 84 13 1 -1 -3 -21 -9 -44 -8 -34 -15 -42 -33 -42 -12 0 -29 -8
-38 -18 -22 -25 -70 -247 -63 -294 l6 -38 -50 0 c-42 0 -52 -4 -66 -25 -26
-39 -29 -108 -9 -162 22 -57 90 -132 167 -185 79 -53 88 -56 80 -25 -4 14 -38
52 -76 84 -38 32 -71 63 -73 68 -1 6 14 18 35 27 l37 18 -57 -6 c-31 -3 -59
-1 -62 4 -11 19 -16 88 -7 102 8 11 39 16 131 20 l122 5 -9 -95 c-4 -52 -8
-130 -8 -172 0 -65 4 -81 24 -108 25 -34 25 -45 2 -158 -11 -56 -2 -65 97 -96
297 -94 684 -99 1042 -15 49 11 93 26 99 33 7 9 6 36 -3 91 l-14 78 34 32 c19
18 34 41 35 51 0 11 6 82 12 159 l12 140 62 3 62 3 -6 -38 c-3 -21 -6 -39 -7
-40 -1 -1 -18 -3 -39 -5 -24 -1 -37 -7 -37 -16 0 -11 13 -13 63 -8 44 4 56 3
40 -4 -13 -5 -23 -14 -23 -20 0 -14 7 -13 40 6 22 14 34 15 58 6 29 -10 31 -9
36 19 3 16 9 43 12 59 6 30 5 31 -23 25 -15 -4 -34 -8 -40 -11 -18 -5 -16 23
2 30 12 4 13 10 4 29 -8 18 -8 30 1 47 l12 22 19 -31 c13 -21 26 -31 44 -31
21 0 25 -5 25 -27 0 -42 -27 -160 -52 -231 -18 -51 -20 -67 -10 -82 7 -11 12
-22 12 -25 0 -3 -24 -21 -54 -41 -59 -39 -66 -55 -66 -151 0 -30 -4 -52 -9
-49 -5 3 -39 -8 -75 -25 -51 -24 -74 -30 -101 -25 l-34 7 6 -38 6 -38 -31 29
-30 28 -129 -25 c-341 -69 -690 -55 -970 39 -118 39 -120 40 -126 17 -3 -10
-5 -2 -6 18 -1 33 -6 39 -63 74 -125 77 -268 192 -268 216 0 13 -5 17 143 -96
109 -83 187 -132 187 -118 0 4 -13 15 -29 24 -57 33 -217 159 -270 213 l-55
55 41 49 c42 49 42 49 28 88 -40 111 3 234 81 234 33 0 50 20 32 38 -8 8 -21
7 -47 -4 -83 -35 -118 -104 -107 -213 l6 -68 -97 -104 c-102 -110 -128 -133
-142 -127 -23 8 -334 472 -357 532 -4 11 2 26 16 42 13 13 19 24 13 24 -18 0
-63 -48 -63 -67 1 -67 368 -603 412 -603 6 0 30 16 54 36 l44 35 97 -82 c239
-202 451 -301 708 -333 161 -20 318 -20 455 -1 108 16 274 53 345 78 l39 14
54 -44 c30 -24 63 -43 77 -43 13 0 65 19 115 41 84 39 89 43 70 56 -11 8 -20
21 -20 29 0 13 3 13 22 0 12 -9 30 -16 39 -16 10 0 20 -11 23 -25 3 -13 15
-29 27 -35 26 -15 77 -3 89 19 6 13 17 17 35 14 14 -3 32 0 40 7 8 6 49 13 91
16 80 4 115 18 135 55 19 35 30 154 18 189 -8 20 -8 34 -1 43 6 6 17 75 26
152 24 200 25 205 47 205 44 0 139 117 139 171 0 20 -49 77 -96 109 l-21 15
27 48 27 48 119 -84 c91 -64 118 -89 116 -103 -6 -31 -108 -210 -191 -334 -89
-134 -96 -150 -44 -93 75 80 273 406 273 449 0 25 -14 43 -62 79 -30 21 -38
34 -38 59 0 27 -7 35 -50 59 -28 16 -50 25 -50 20 0 -4 -5 -1 -9 7 -5 9 -3 43
5 85 21 99 29 388 15 514 -21 190 -80 408 -146 542 -129 256 -410 535 -680
673 l-70 36 -7 -23 c-11 -41 -8 -45 65 -84 158 -86 251 -156 388 -293 117
-117 249 -283 236 -297 -2 -2 -28 9 -58 24 -69 36 -171 39 -236 7 -41 -20 -42
-20 -32 -2 12 22 83 57 133 65 18 3 48 0 68 -5 29 -8 36 -7 31 3 -11 30 -106
30 -178 -1 -68 -28 -138 -110 -186 -219 -69 -156 3 -383 145 -458 62 -33 164
-30 238 6 59 29 86 55 153 150 l40 57 7 -33 c38 -167 50 -420 27 -584 -11 -83
-59 -241 -84 -276 -24 -34 -18 -49 35 -95 50 -43 61 -70 40 -102 -7 -11 -10
-12 -10 -2 0 37 -34 81 -83 108 -48 27 -60 29 -152 29 -86 -1 -110 -5 -167
-28 l-67 -28 -30 33 c-36 41 -52 32 -16 -10 20 -24 22 -32 12 -41 -11 -8 -42
33 -147 192 -158 238 -173 272 -174 382 0 90 13 146 47 196 41 61 90 46 167
-51 30 -38 30 -40 15 -69 -31 -61 -12 -107 67 -160 43 -28 57 -32 89 -27 l38
6 -5 -32 c-5 -29 0 -38 35 -73 23 -21 41 -36 41 -33 0 4 32 -11 71 -33 81 -44
79 -43 79 -26 0 7 -20 28 -45 47 -45 34 -70 66 -120 155 -38 67 -90 137 -180
242 -65 75 -75 92 -75 124 0 52 -19 139 -38 171 -36 62 -164 102 -316 98 -50
-2 -110 -2 -132 -1 l-42 1 -7 80 c-8 88 2 115 37 104 101 -32 199 57 200 182
1 61 -18 97 -63 122 -16 10 -29 22 -29 29 0 7 9 59 20 115 11 57 20 117 20
134 0 18 8 38 20 49 55 49 79 133 60 204 -15 58 -49 78 -105 63 -55 -15 -93
-4 -148 43 -50 44 -159 97 -242 120 -97 26 -230 29 -291 7z m214 -48 c122 -25
292 -106 369 -177 19 -16 30 -19 73 -13 48 6 51 5 60 -19 17 -44 11 -71 -25
-123 -20 -30 -37 -69 -41 -94 -10 -71 -10 -72 -46 -47 -18 13 -63 51 -100 85
-73 66 -166 119 -268 153 -56 18 -69 27 -92 64 -35 56 -99 116 -105 99 -3 -7
-21 -31 -40 -54 -41 -49 -54 -78 -47 -105 5 -18 18 -21 112 -26 59 -4 131 -13
160 -21 95 -26 238 -103 222 -120 -3 -3 -49 15 -101 39 -212 100 -347 109
-556 36 -67 -23 -127 -40 -133 -36 -16 10 20 33 67 43 26 5 42 16 53 35 13 24
13 29 -3 56 -9 16 -17 41 -17 55 0 33 32 66 64 66 13 0 46 15 72 33 125 86
185 99 322 71z m-130 -168 c17 -24 32 -46 32 -49 0 -4 -31 -7 -70 -7 -38 0
-70 2 -70 5 0 8 64 95 69 95 3 0 21 -20 39 -44z m116 -177 c36 -11 96 -34 133
-51 66 -30 67 -31 39 -39 -21 -6 -56 1 -140 27 -101 33 -119 35 -201 31 -66
-3 -107 -11 -156 -31 -105 -42 -148 -31 -84 22 31 25 87 47 170 66 39 9 175
-5 239 -25z m6 -119 c147 -49 167 -50 273 -5 17 7 18 4 11 -29 -4 -26 -1 -49
11 -75 15 -35 15 -41 2 -62 -19 -31 -20 -119 -2 -119 17 0 28 33 21 58 -4 11
4 32 18 51 l25 34 -19 38 c-20 38 -26 69 -13 69 13 0 93 -51 93 -60 0 -52 -28
-119 -71 -173 -27 -34 -49 -66 -49 -72 0 -7 9 -20 19 -29 19 -17 20 -16 40 23
43 83 114 93 138 20 21 -66 -12 -149 -73 -178 -25 -13 -32 -12 -65 6 -34 19
-39 19 -54 4 -15 -15 -17 -15 -30 2 -12 16 -15 14 -30 -32 -23 -70 -83 -134
-162 -173 -60 -29 -75 -32 -152 -32 -145 1 -238 60 -276 173 -13 39 -44 312
-45 387 0 29 61 58 103 50 21 -4 36 -1 49 10 25 24 23 38 -13 68 -28 24 -32
25 -58 11 -15 -7 -42 -30 -60 -50 l-31 -36 0 50 0 49 78 26 c146 47 171 47
322 -4z m-1153 -150 c18 -52 17 -209 -1 -216 -8 -3 -12 -12 -10 -19 4 -10 -6
-16 -33 -20 -21 -4 -46 -9 -55 -12 -39 -10 -13 70 37 117 26 24 26 27 19 108
-6 79 -5 84 12 80 11 -2 24 -18 31 -38z m103 -75 c12 -15 11 -39 -5 -125 -5
-26 -4 -31 4 -20 9 13 11 13 11 -2 0 -13 -8 -18 -31 -18 l-32 0 7 53 c3 28 6
69 6 90 0 40 17 49 40 22z m620 -124 c0 -15 3 -56 6 -90 8 -72 -6 -81 -30 -21
-18 46 -21 93 -6 121 15 28 30 23 30 -10z m1666 -101 c52 -29 124 -103 124
-126 0 -6 -6 -14 -14 -17 -10 -4 -24 9 -41 38 -65 112 -194 146 -303 78 -81
-50 -122 -130 -122 -242 0 -115 55 -213 146 -257 45 -22 61 -25 101 -19 27 4
55 11 65 16 11 6 18 4 22 -6 7 -19 -4 -25 -65 -34 -71 -12 -121 4 -178 55 -98
88 -137 245 -91 368 58 152 225 222 356 146z m-2288 -6 c17 -11 22 -25 22 -56
0 -37 -2 -40 -22 -33 -49 16 -94 16 -132 0 -21 -9 -35 -19 -31 -23 4 -4 40 -7
81 -7 67 0 76 -3 101 -27 23 -24 26 -31 17 -55 -10 -29 -17 -31 -86 -18 -41 8
-111 -2 -104 -14 3 -5 28 -11 55 -15 40 -5 49 -10 44 -22 -5 -14 -1 -15 25 -9
24 5 35 2 51 -14 15 -15 21 -17 21 -7 0 8 10 31 21 51 18 29 21 46 16 87 l-6
51 25 -24 c22 -20 25 -31 21 -64 -4 -39 -46 -122 -89 -177 -30 -39 -15 -47 21
-11 l29 30 6 -30 c13 -62 7 -84 -29 -115 -40 -35 -92 -49 -138 -35 -29 8 -32
13 -40 63 -4 30 -14 61 -21 69 -22 25 -96 187 -96 210 0 11 8 24 17 30 17 9
16 11 -1 30 -20 22 -15 51 9 51 18 0 20 11 4 27 -6 6 -9 19 -7 29 7 38 171 60
216 28z m120 4 c16 -16 15 -70 -1 -92 -13 -18 -15 -17 -35 9 -32 41 -25 95 13
95 6 0 16 -5 23 -12z m2131 -33 c15 -7 44 -32 63 -53 42 -46 64 -128 55 -203
-4 -32 -2 -49 6 -52 13 -4 -10 -67 -25 -67 -6 0 -8 6 -5 13 15 41 17 57 8 57
-17 0 -55 -81 -42 -89 20 -13 -55 -73 -108 -87 -192 -49 -327 221 -204 408 57
86 167 118 252 73z m195 -188 c10 -61 5 -77 -18 -58 -15 13 -31 95 -21 111 14
23 30 1 39 -53z m-1109 -134 c7 -30 5 -34 -41 -63 -104 -66 -233 -98 -320 -80
l-54 11 0 74 0 75 29 -6 c45 -9 163 14 228 46 32 15 74 44 93 64 l35 37 11
-63 c7 -35 15 -77 19 -95z m389 6 c44 -12 96 -58 96 -86 0 -14 -5 -11 -18 10
-21 35 -73 63 -135 72 -26 4 -50 12 -54 18 -6 10 38 5 111 -14z m737 -15 c-5
-16 -10 -21 -10 -12 -1 18 10 51 15 45 2 -1 -1 -16 -5 -33z m-986 5 c24 -6 52
-20 62 -31 17 -19 15 -22 -82 -117 -107 -103 -221 -201 -235 -201 -4 0 -28 35
-53 77 l-45 78 75 26 c76 27 173 87 197 121 8 11 12 28 9 39 -6 22 8 24 72 8z
m216 -44 c3 -2 -16 -28 -43 -56 -96 -103 -158 -272 -158 -434 0 -139 33 -249
96 -325 l28 -32 28 33 29 34 -17 -35 c-23 -49 -43 -70 -61 -63 -22 9 -108 144
-134 211 -18 46 -22 78 -23 167 0 119 20 208 71 310 29 58 118 181 136 189 16
6 43 7 48 1z m-842 -32 c-5 -15 -7 -52 -4 -82 5 -43 3 -52 -5 -38 -16 25 -57
21 -85 -9 -14 -15 -25 -32 -25 -37 0 -6 -2 -8 -5 -5 -8 8 33 117 55 146 20 25
56 51 72 52 4 0 3 -12 -3 -27z m1530 -2 c12 -8 10 -16 -13 -45 -34 -45 -62
-61 -81 -46 -11 9 -5 19 28 55 46 49 46 49 66 36z m-1675 -66 c-13 -36 -28
-102 -33 -148 -6 -45 -19 -112 -31 -149 -18 -57 -23 -65 -41 -61 -11 3 -18 11
-15 19 3 7 17 63 32 126 26 112 61 209 91 255 8 12 16 23 18 23 1 0 -8 -29
-21 -65z m-69 18 c-14 -31 -183 -536 -199 -595 -13 -47 -21 -58 -37 -58 -17 0
-20 5 -15 28 3 15 10 54 15 87 5 33 12 74 15 90 6 27 5 28 -6 11 -37 -55 -70
-67 -213 -81 -62 -6 -73 -5 -97 14 -34 28 -54 79 -32 88 10 4 26 -6 44 -26 38
-41 57 -40 31 3 -12 18 -21 36 -21 39 0 4 15 14 33 23 41 21 95 71 114 107 23
45 8 43 -46 -5 -84 -76 -189 -113 -240 -86 -22 12 -38 44 -54 109 -7 26 -6 26
53 26 112 1 223 83 250 184 10 36 12 38 35 27 31 -14 70 -71 91 -132 9 -26 20
-44 25 -39 7 7 -3 58 -28 135 -4 13 9 21 64 37 96 28 101 29 167 30 52 1 57
-1 51 -16z m1115 -33 c13 -9 12 -13 -6 -28 -37 -30 -73 -87 -95 -148 -29 -80
-32 -236 -6 -312 l19 -52 -33 -41 c-17 -22 -35 -37 -39 -32 -5 4 -15 31 -23
60 -50 170 -22 358 74 503 33 48 46 60 67 60 15 0 34 -5 42 -10z m-774 -36
l41 -6 -41 -63 c-23 -35 -46 -71 -52 -82 -11 -17 -13 -16 -24 12 -17 42 -24
99 -16 130 6 22 11 26 29 21 12 -3 40 -8 63 -12z m425 -160 c-16 -49 -33 -115
-36 -147 l-8 -59 -17 26 c-26 40 -51 55 -93 56 -71 0 -121 -81 -97 -155 15
-45 63 -85 103 -85 33 0 97 51 97 77 0 7 4 13 9 13 13 0 26 -259 13 -272 -26
-26 -185 -38 -215 -15 -11 8 -17 31 -19 76 -2 41 -8 66 -15 69 -10 3 -13 -18
-13 -81 0 -107 4 -111 120 -115 72 -3 96 0 134 16 25 12 46 27 46 34 0 7 21
-25 45 -71 51 -94 50 -98 -22 -142 -18 -11 -33 -25 -33 -29 0 -5 32 -6 71 -3
l72 6 -7 -124 c-5 -86 -4 -119 3 -109 6 8 11 58 12 110 0 52 4 105 8 118 l6
23 29 -30 30 -31 -11 -170 c-12 -196 -13 -199 -101 -224 -94 -26 -416 -53
-441 -37 -17 11 -17 109 4 831 8 272 15 501 15 508 0 28 19 8 48 -51 18 -35
40 -71 50 -80 17 -16 21 -15 64 12 25 16 74 56 109 89 35 33 65 59 67 57 1 -1
-11 -42 -27 -91z m-501 -84 c15 -22 16 -22 60 35 88 112 80 106 75 55 -3 -25
-12 -317 -21 -650 -8 -333 -17 -611 -19 -617 -6 -18 -181 -17 -215 0 l-25 13
3 149 c4 224 31 885 37 923 l6 32 -56 0 c-49 0 -56 2 -51 18 3 9 12 45 21 80
12 48 24 70 53 96 l36 34 41 -73 c22 -40 47 -83 55 -95z m1074 41 c3 -5 -3
-11 -14 -14 -24 -6 -26 -34 -3 -67 l17 -25 -22 19 c-12 11 -22 31 -22 46 0 36
30 64 44 41z m44 -59 c3 -9 -2 -13 -14 -10 -9 1 -19 9 -22 16 -3 9 2 13 14 10
9 -1 19 -9 22 -16z m62 -74 c0 -5 -11 -8 -25 -8 -23 0 -24 2 -13 25 10 23 12
23 24 7 7 -9 14 -20 14 -24z m-70 28 c0 -11 -19 -15 -25 -6 -3 5 1 10 9 10 9
0 16 -2 16 -4z m-737 -17 c26 -12 47 -47 47 -77 0 -10 -13 -33 -28 -51 -32
-39 -55 -37 -86 6 -28 38 -26 91 3 114 27 22 32 23 64 8z m-647 -30 c50 -13
54 -27 26 -74 -10 -16 -22 -42 -25 -57 -6 -21 -14 -28 -32 -28 -35 0 -38 14
-15 59 24 48 26 71 5 71 -16 0 -19 -5 -29 -52 -8 -35 -26 -37 -26 -3 0 34 26
95 40 95 6 0 31 -5 56 -11z m107 -161 c-3 -73 -9 -137 -14 -143 -5 -5 -38 -11
-74 -13 -52 -4 -64 -2 -61 9 12 37 15 80 6 74 -6 -3 -10 1 -10 10 0 8 10 19
23 24 34 13 82 72 102 125 10 25 21 46 26 46 5 0 6 -60 2 -132z m-213 -4 c8
-21 4 -46 -19 -119 -17 -51 -38 -123 -47 -159 -27 -110 -47 -71 -23 46 12 60
70 258 76 258 2 0 8 -12 13 -26z m1051 -270 c30 -43 57 -87 61 -97 7 -16 5
-16 -22 3 -37 26 -114 149 -138 221 -35 101 -32 114 7 33 21 -45 63 -117 92
-160z m-1181 131 c0 -19 -30 -19 -56 0 -18 13 -17 14 19 15 26 0 37 -4 37 -15z
m1420 -162 c0 -85 -3 -103 -15 -103 -17 0 -19 47 -8 163 9 98 23 62 23 -60z
m-1490 83 c44 -21 45 -23 42 -66 -4 -82 -9 -93 -40 -85 -15 4 -28 8 -30 10 -2
1 3 28 11 58 13 49 13 56 0 61 -26 11 -29 7 -43 -60 -13 -66 -12 -67 11 -85
29 -22 4 -27 -25 -6 -18 13 -18 17 0 105 10 51 21 92 24 91 3 0 25 -10 50 -23z
m395 -191 c-4 -115 -10 -268 -14 -340 l-6 -130 -26 -3 c-31 -4 -180 33 -221
54 -27 14 -28 17 -28 97 0 45 5 133 11 194 9 102 13 115 38 140 21 21 31 48
45 113 l18 85 95 0 95 0 -7 -210z m1190 84 c15 -28 15 -33 0 -55 -8 -13 -18
-24 -20 -24 -3 0 -5 25 -5 55 0 30 2 55 5 55 2 0 12 -14 20 -31z m445 -5 c49
-21 70 -43 70 -76 l0 -28 -37 23 c-61 38 -109 50 -187 45 -73 -5 -169 -40
-208 -75 -16 -14 -18 -14 -18 0 0 35 121 108 212 127 51 10 120 4 168 -16z
m-58 -88 c54 -23 57 -31 47 -132 -12 -130 -38 -297 -47 -306 -9 -9 -162 5
-249 23 l-52 10 14 39 c18 50 64 255 67 297 2 28 8 35 48 52 81 34 121 38 172
17z m-522 -47 c0 -11 -4 -18 -10 -14 -5 3 -7 12 -3 20 7 21 13 19 13 -6z m58
5 c-2 -9 -12 -20 -23 -24 -16 -6 -21 -4 -22 11 -1 12 3 16 14 12 11 -4 14 -2
9 5 -4 7 -1 12 9 12 10 0 15 -7 13 -16z m362 -454 c53 -8 90 -19 98 -28 17
-22 15 -107 -3 -142 -10 -20 -28 -33 -55 -41 -22 -7 -42 -10 -45 -8 -2 3 1 22
7 42 9 29 9 40 -1 50 -10 9 -15 8 -23 -8 -16 -29 -93 -105 -107 -105 -6 0 -11
18 -11 45 0 57 -25 52 -33 -7 -3 -23 -14 -50 -25 -61 -19 -19 -20 -19 -30 -1
-6 12 -7 52 -2 109 5 49 7 91 6 93 -2 1 -10 0 -19 -4 -10 -3 -19 -25 -24 -57
-11 -68 -33 -75 -33 -10 0 58 17 85 79 125 50 32 50 32 221 8z m-1540 -45 l45
-7 -3 -44 c-2 -24 -7 -44 -11 -44 -3 0 -22 4 -41 9 -19 5 -46 12 -60 15 -23 5
-25 9 -22 46 4 37 7 41 26 37 11 -3 41 -8 66 -12z m408 -38 c19 -15 16 -116
-4 -124 -8 -3 -79 -1 -156 4 -154 11 -158 13 -158 75 0 70 -5 68 158 61 81 -3
153 -10 160 -16z m412 -6 c0 -17 -4 -32 -8 -35 -5 -3 -43 -8 -85 -12 l-77 -7
0 36 c0 40 6 42 118 45 51 2 52 2 52 -27z m-980 9 c0 -5 -7 -10 -15 -10 -8 0
-15 5 -15 10 0 6 7 10 15 10 8 0 15 -4 15 -10z m758 -31 c3 -36 3 -36 -44 -43
-84 -11 -84 -11 -84 39 l0 46 63 -3 62 -3 3 -36z" />
    <path
      d="M2700 4048 c0 -31 13 -50 42 -63 39 -16 69 -9 109 24 44 37 35 60
-11 26 -44 -32 -77 -32 -112 2 -21 20 -28 23 -28 11z" />
    <path
      d="M2193 3973 c-24 -13 -43 -29 -43 -34 0 -12 -2 -12 53 7 34 11 47 21
47 35 0 24 -5 23 -57 -8z" />
    <path
      d="M2526 3680 c-50 -25 -50 -25 -37 -49 10 -18 18 -20 74 -14 52 5 70 2
105 -16 40 -20 42 -20 42 -3 0 31 -88 102 -125 102 -11 -1 -38 -10 -59 -20z" />
    <path d="M2251 3538 c-11 -30 1 -72 22 -76 23 -5 40 40 27 73 -12 31 -38 32
-49 3z" />
    <path
      d="M2394 3525 c-7 -19 -14 -38 -14 -43 0 -4 -15 -32 -34 -61 -38 -61
-37 -85 5 -106 53 -28 64 -14 28 34 l-21 28 26 51 c25 50 45 132 32 132 -4 0
-14 -16 -22 -35z" />
    <path
      d="M2592 3548 c-16 -16 -15 -73 2 -87 32 -27 64 57 34 87 -7 7 -15 12
-18 12 -3 0 -11 -5 -18 -12z" />
    <path
      d="M2942 3418 c-6 -6 -12 -18 -12 -26 0 -12 3 -12 15 -2 8 7 26 10 40 7
20 -3 25 -1 23 12 -4 20 -49 26 -66 9z" />
    <path d="M2971 3356 c27 -28 36 -27 19 3 -6 12 -18 21 -26 21 -13 0 -11 -5 7
-24z" />
    <path
      d="M2577 3334 c-3 -3 -3 -12 -1 -19 3 -8 -14 -22 -43 -36 -37 -18 -65
-24 -118 -24 -38 0 -78 4 -89 9 -15 7 -17 5 -14 -10 5 -27 71 -47 133 -40 27
3 77 19 111 36 34 16 64 30 68 30 3 0 6 -11 6 -25 0 -14 5 -25 10 -25 18 0 23
30 11 54 -14 24 -65 59 -74 50z" />
    <path d="M2378 3179 c-33 -19 -18 -24 67 -24 47 -1 85 3 85 7 0 24 -118 37
-152 17z" />
    <path d="M1356 3415 c-9 -26 -7 -32 5 -12 6 10 9 21 6 23 -2 3 -7 -2 -11 -11z" />
    <path
      d="M3595 3218 c-70 -38 -105 -103 -104 -190 0 -51 2 -58 10 -38 5 14 17
30 28 37 17 11 18 8 17 -28 0 -30 -5 -39 -18 -39 -26 0 -29 -14 -8 -48 80
-132 254 -71 281 98 12 76 -6 133 -56 179 -38 35 -51 41 -87 41 -24 0 -52 -6
-63 -12z m120 -54 c25 -25 45 -53 45 -62 0 -10 -8 -3 -21 17 -24 39 -34 33
-48 -28 -9 -42 -8 -45 25 -77 40 -37 38 -48 -14 -97 -32 -31 -104 -48 -116
-28 -5 7 6 11 33 11 27 0 48 7 66 23 l26 22 -27 25 c-15 14 -24 20 -21 14 12
-20 -21 -24 -44 -5 -28 22 -19 51 15 51 18 0 25 7 29 27 4 23 -2 34 -34 64
-44 40 -44 62 -1 78 40 14 39 15 87 -35z" />
    <path d="M3617 3183 c-4 -3 -7 -12 -7 -20 0 -11 18 -12 72 -4 4 0 5 8 2 16 -6
15 -55 21 -67 8z" />
    <path d="M3692 2990 c14 -20 25 -27 32 -20 11 11 -20 50 -41 50 -10 0 -7 -9 9
-30z" />
    <path d="M3622 2998 c6 -18 28 -21 28 -4 0 9 -7 16 -16 16 -9 0 -14 -5 -12
-12z" />
    <path d="M2704 2395 c-7 -18 36 -97 50 -92 20 6 18 47 -4 77 -23 33 -38 38
-46 15z" />
    <path
      d="M3563 4150 c-39 -24 -53 -48 -53 -95 0 -47 13 -71 50 -90 49 -25 88
-19 126 19 39 39 44 77 18 127 -14 28 -65 59 -96 59 -7 0 -27 -9 -45 -20z
m111 -41 c30 -35 32 -49 11 -90 -29 -55 -97 -61 -135 -12 -44 56 -7 133 64
133 26 0 40 -7 60 -31z" />
    <path
      d="M1482 4104 c-52 -36 -5 -122 53 -96 14 6 28 23 31 38 6 22 2 32 -20
51 -32 27 -35 28 -64 7z m64 -29 c8 -20 -13 -45 -38 -45 -21 0 -33 22 -24 45
7 20 55 19 62 0z" />
    <path
      d="M1632 4013 c-35 -25 -61 -48 -58 -50 8 -9 136 78 130 88 -3 5 -6 9
-7 8 -1 0 -30 -21 -65 -46z" />
    <path
      d="M1822 3990 c-109 -59 -177 -110 -281 -207 -80 -75 -93 -92 -87 -111
4 -12 11 -22 15 -22 3 0 48 35 99 79 112 96 200 155 312 211 47 23 86 44 88
45 2 2 -3 12 -10 24 -19 31 -53 26 -136 -19z" />
    <path
      d="M1427 3875 c-27 -25 -53 -45 -57 -45 -5 0 -22 12 -39 26 -23 19 -31
22 -31 11 0 -16 55 -67 71 -67 13 0 119 100 119 111 0 17 -15 8 -63 -36z" />
    <path
      d="M3750 3875 l-23 -24 41 -49 c49 -58 70 -77 78 -69 4 3 -15 31 -41 62
-65 75 -49 83 19 9 44 -48 55 -56 61 -42 4 11 -1 27 -13 42 -41 53 -82 96 -90
96 -5 0 -19 -11 -32 -25z" />
    <path d="M1437 3824 c-14 -14 -7 -35 11 -32 9 2 17 10 17 17 0 16 -18 25 -28
15z" />
    <path
      d="M1182 3750 c-45 -18 -53 -87 -16 -125 24 -23 92 -11 122 21 58 65
-18 139 -106 104z m89 -51 c14 -27 3 -37 -44 -41 -43 -2 -61 15 -46 44 14 27
75 24 90 -3z" />
    <path
      d="M1090 3608 c0 -2 22 -27 49 -56 35 -37 54 -50 66 -46 15 6 15 4 0
-32 -68 -159 -109 -281 -130 -384 l-16 -80 35 -42 c20 -23 45 -66 57 -97 24
-65 71 -151 82 -151 4 0 6 44 4 98 -3 89 -7 103 -42 172 -35 69 -38 73 -47 51
-6 -18 -11 -22 -20 -13 -11 11 5 75 63 256 10 33 19 68 19 78 0 10 16 50 35
89 39 76 39 98 0 119 -22 12 -30 11 -61 -3 -34 -16 -34 -16 -25 2 9 16 7 20
-13 25 -13 3 -31 9 -40 12 -9 3 -16 4 -16 2z" />
    <path
      d="M804 3534 c-10 -38 17 -61 51 -46 42 20 27 72 -22 72 -16 0 -25 -8
-29 -26z m53 0 c9 -23 -13 -40 -32 -24 -12 10 -13 16 -4 26 15 18 28 18 36 -2z" />
    <path
      d="M3968 3520 c-30 -24 -60 -39 -70 -36 -10 2 -18 2 -18 0 0 -2 29 -62
64 -132 35 -70 76 -162 91 -204 l27 -76 45 19 c56 24 60 24 38 -1 -30 -33 7
-25 39 9 35 36 28 53 -17 40 -17 -5 -37 -9 -43 -9 -15 0 -65 111 -56 125 4 5
8 1 10 -10 6 -31 22 -45 53 -45 34 0 52 28 43 65 -9 38 -37 48 -80 30 -50 -20
-52 -20 -68 20 -8 19 -31 61 -50 94 l-35 60 33 28 c18 15 41 33 51 39 12 7 15
13 8 17 -6 4 -35 -11 -65 -33z m177 -270 c0 -29 -32 -41 -41 -16 -9 24 4 48
23 44 12 -2 18 -12 18 -28z" />
    <path d="M1036 3440 c-34 -62 -21 -65 22 -5 36 51 37 55 19 55 -8 0 -26 -22
-41 -50z" />
    <path d="M4037 3439 c-15 -11 -25 -25 -21 -30 6 -10 64 27 64 42 0 14 -12 10
-43 -12z" />
    <path
      d="M1005 3329 c-11 -17 -34 -123 -29 -131 8 -13 31 -9 44 7 9 11 9 22 2
44 -14 38 -5 76 14 60 7 -6 23 -9 36 -7 22 3 21 5 -9 21 -37 20 -49 21 -58 6z" />
    <path d="M962 3291 c-7 -19 -10 -36 -7 -39 6 -7 26 49 22 62 -2 6 -9 -5 -15
-23z" />
    <path
      d="M1015 3090 c-13 -21 -43 -215 -34 -218 33 -13 40 -34 32 -111 -4 -42
-8 -152 -8 -246 1 -168 12 -256 51 -389 7 -27 11 -52 8 -57 -3 -5 -23 -18 -44
-29 -52 -27 -72 -48 -65 -71 4 -10 0 -28 -9 -40 -13 -19 -13 -25 2 -58 23 -49
107 -175 147 -220 27 -30 99 -137 171 -257 7 -11 15 -16 19 -12 4 3 -37 71
-91 150 -173 254 -205 302 -224 339 l-18 35 99 68 c55 37 103 64 109 61 19
-12 71 -116 66 -133 -4 -11 1 -21 13 -27 10 -6 37 -23 60 -39 48 -33 67 -29
26 6 l-27 24 81 53 c45 30 80 59 78 65 -7 23 -45 16 -120 -22 -86 -43 -81 -44
-120 34 l-26 52 89 22 c60 15 90 27 90 36 0 18 -2 18 -101 -11 -46 -13 -87
-25 -90 -25 -9 0 -25 62 -50 190 -17 86 -23 153 -23 263 0 81 -3 147 -7 147
-20 0 -25 -188 -9 -339 10 -89 8 -112 -6 -98 -13 12 -34 197 -34 297 0 58 7
161 16 228 14 99 14 126 4 132 -8 5 -9 9 -1 11 6 2 -2 23 -20 49 -26 39 -30
52 -26 98 4 54 3 59 -8 42z" />
    <path
      d="M786 2916 c-9 -52 -18 -139 -21 -193 l-4 -98 9 75 c6 41 19 125 30
187 23 129 22 123 12 123 -5 0 -16 -42 -26 -94z" />
    <path
      d="M4395 2972 c-11 -11 -4 -24 9 -19 9 4 16 -3 20 -16 9 -33 7 -37 -9
-37 -8 0 -15 -4 -15 -10 0 -13 27 -13 35 0 11 18 -5 87 -21 87 -8 0 -16 -3
-19 -5z" />
    <path d="M4240 2890 c0 -5 5 -10 11 -10 5 0 7 5 4 10 -3 6 -8 10 -11 10 -2 0
-4 -4 -4 -10z" />
    <path
      d="M812 2820 c-7 -39 -12 -80 -11 -93 0 -21 1 -21 8 -2 9 22 25 165 19
165 -2 0 -9 -32 -16 -70z" />
    <path
      d="M4205 2835 c5 -36 20 -219 28 -335 2 -25 4 -5 5 43 2 96 -13 256 -28
302 -9 27 -10 26 -5 -10z" />
    <path d="M4390 2850 c0 -5 7 -7 15 -4 8 4 15 8 15 10 0 2 -7 4 -15 4 -8 0 -15
-4 -15 -10z" />
    <path
      d="M947 2788 c-16 -64 -28 -263 -22 -358 6 -101 29 -247 40 -258 13 -13
13 11 0 98 -17 114 -19 267 -4 414 7 69 7 112 1 118 -6 6 -12 1 -15 -14z" />
    <path
      d="M679 2685 c-5 -125 -1 -165 17 -165 11 0 14 17 14 73 0 39 2 97 5
127 3 30 3 49 -1 43 -8 -18 -22 -16 -27 5 -2 9 -6 -28 -8 -83z m18 -32 c-3
-10 -5 -4 -5 12 0 17 2 24 5 18 2 -7 2 -21 0 -30z" />
    <path d="M4387 2610 c3 -63 7 -117 9 -119 7 -8 2 133 -6 184 -6 34 -7 12 -3
-65z" />
    <path d="M4660 2609 c0 -24 23 -21 28 4 2 10 -3 17 -12 17 -10 0 -16 -9 -16
-21z" />
    <path
      d="M3748 2572 c-38 -9 -58 -19 -58 -29 0 -11 7 -14 23 -10 12 3 39 9 60
12 20 4 40 12 43 17 13 20 -13 24 -68 10z" />
    <path
      d="M4177 2468 c-4 -57 -9 -132 -12 -168 -3 -47 -2 -57 4 -38 8 25 31
236 31 287 0 12 -4 21 -9 21 -4 0 -11 -46 -14 -102z" />
    <path
      d="M722 2445 c-1 -75 29 -289 42 -302 9 -10 7 14 -10 103 -8 46 -19 127
-23 181 l-8 98 -1 -80z" />
    <path
      d="M4120 2411 c0 -32 -26 -190 -36 -215 -3 -9 -2 -16 4 -16 18 0 33 63
39 163 3 53 3 97 -1 97 -3 0 -6 -13 -6 -29z" />
    <path d="M4222 2410 c0 -14 2 -19 5 -12 2 6 2 18 0 25 -3 6 -5 1 -5 -13z" />
    <path d="M3896 2249 c-40 -21 -55 -34 -48 -41 17 -17 116 25 120 51 4 27 -1
26 -72 -10z" />
    <path
      d="M3436 2158 c-9 -12 -16 -42 -16 -65 0 -33 5 -45 21 -54 26 -13 42 4
34 36 -2 11 -5 39 -5 63 0 47 -11 53 -34 20z" />
    <path d="M4444 2005 c-18 -14 -18 -14 4 -8 12 3 22 9 22 14 0 12 -3 11 -26 -6z" />
    <path
      d="M594 1890 c-57 -23 -61 -92 -9 -137 33 -29 57 -29 92 1 25 21 26 26
15 50 -7 15 -12 38 -12 52 0 17 -8 27 -26 34 -29 12 -32 12 -60 0z m64 -45
c10 -23 17 -75 9 -75 -1 0 -17 -4 -35 -9 -27 -8 -36 -7 -53 10 -26 26 -24 64
3 83 34 24 63 20 76 -9z" />
    <path
      d="M1618 1695 c-3 -3 -3 -17 0 -30 6 -32 52 -36 52 -5 0 16 7 20 38 20
20 0 44 5 52 10 10 7 -8 10 -61 10 -42 0 -78 -2 -81 -5z" />
    <path
      d="M967 1392 c-15 -16 -27 -36 -27 -47 0 -63 388 -438 555 -536 32 -19
38 -20 51 -7 13 13 2 24 -93 94 -134 98 -314 270 -404 387 -59 76 -67 92 -58
109 16 31 5 31 -24 0z" />
    <path d="M3207 1414 c-16 -16 -6 -35 16 -32 12 2 22 10 22 18 0 16 -26 25 -38
14z" />
    <path d="M3965 1220 c-16 -16 -26 -32 -23 -36 9 -8 68 37 68 53 0 21 -14 15
-45 -17z" />
    <path
      d="M3280 1201 c0 -37 -3 -40 -60 -70 -33 -18 -60 -34 -60 -36 0 -7 98
33 125 51 26 17 29 32 19 72 -10 35 -24 26 -24 -17z" />
    <path
      d="M1344 1126 c-17 -13 -17 -15 -1 -40 18 -26 29 -30 58 -18 12 5 14 13
8 29 -12 32 -42 45 -65 29z" />
    <path
      d="M1760 840 c-12 -22 2 -60 21 -60 22 0 49 21 49 38 0 41 -51 57 -70
22z m50 -20 c0 -13 -7 -20 -20 -20 -13 0 -20 7 -20 20 0 13 7 20 20 20 13 0
20 -7 20 -20z" />
  </g>
</svg>